<?xml version="1.0" encoding="UTF-8" standalone="no"?>
<!-- Created with Inkscape (http://www.inkscape.org/) -->

<svg
   width="82mm"
   height="79mm"
   viewBox="0 0 82 79"
   version="1.1"
   id="svg5"
   inkscape:version="1.2.2 (b0a8486541, 2022-12-01)"
   sodipodi:docname="mm.svg"
   xmlns:inkscape="http://www.inkscape.org/namespaces/inkscape"
   xmlns:sodipodi="http://sodipodi.sourceforge.net/DTD/sodipodi-0.dtd"
   xmlns="http://www.w3.org/2000/svg"
   xmlns:svg="http://www.w3.org/2000/svg">
  <sodipodi:namedview
     id="namedview7"
     pagecolor="#ffffff"
     bordercolor="#000000"
     borderopacity="0.25"
     inkscape:showpageshadow="2"
     inkscape:pageopacity="0.0"
     inkscape:pagecheckerboard="0"
     inkscape:deskcolor="#d1d1d1"
     inkscape:document-units="mm"
     showgrid="false"
     inkscape:zoom="2.1669529"
     inkscape:cx="131.05961"
     inkscape:cy="135.44365"
     inkscape:window-width="1542"
     inkscape:window-height="942"
     inkscape:window-x="2045"
     inkscape:window-y="101"
     inkscape:window-maximized="0"
     inkscape:current-layer="layer1" />
  <defs
     id="defs2" />
  <g
     inkscape:label="Layer 1"
     inkscape:groupmode="layer"
     id="layer1">
    <text
       xml:space="preserve"
       style="font-size:3.93145px;font-family:FreeMono;-inkscape-font-specification:FreeMono;fill:#ffc306;fill-opacity:0.685065;stroke-width:0.32762"
       x="10.104872"
       y="9.9560862"
       id="text1605"><tspan
         sodipodi:role="line"
         id="tspan1603"
         style="stroke-width:0.32762"
         x="10.104872"
         y="9.9560862" /></text>
    <g
       aria-label="M"
       id="text1609"
       style="font-size:25.4px;font-family:C059;-inkscape-font-specification:C059;fill:#2563eb;fill-opacity:1;stroke-width:0.264583"
       transform="matrix(3.5426497,0,0,3.5426497,-115.48282,-14.992988)">
      <path
         d="m 39.586423,6.2125862 h -6.5532 v 1.1937999 h 0.4826 c 1.4478,0.0254 1.9304,0.1016 2.1082,0.3556 0.1778,0.2286 0.1778,0.254 0.1778,1.5748 v 9.7281999 c 0,3.4544 -0.4826,4.1656 -2.9464,4.2926 v 1.1938 h 7.239 v -1.1938 c -2.4384,-0.127 -2.921,-0.8382 -2.921,-4.2926 V 7.8381861 l 6.0452,16.7131999 h 1.016 l 5.6642,-16.7131999 V 21.427186 c 0,1.2954 0,1.3462 -0.1524,1.6002 -0.2032,0.254 -0.6858,0.3302 -2.1336,0.3302 h -0.4572 v 1.1938 h 8.3312 v -1.1938 h -0.4572 c -1.4478,0 -1.9304,-0.0762 -2.1336,-0.3302 -0.1524,-0.254 -0.1524,-0.2794 -0.1524,-1.6002 V 9.3367861 c 0,-1.2954 0,-1.3462 0.1524,-1.5748 0.2032,-0.254 0.6858,-0.3302 2.1336,-0.3556 h 0.4572 V 6.2125862 h -6.3754 l -4.6482,13.5381998 z"
         id="path1661"
         style="fill:#2563eb;fill-opacity:1" />
    </g>
  </g>
</svg>
