<svg width="38" height="38" viewBox="0 0 38 38" fill="none" xmlns="http://www.w3.org/2000/svg">
<circle cx="19" cy="19" r="19" fill="#BFBFBF"/>
<path d="M27.0809 18.2225C27.0119 17.914 26.8203 17.6274 26.5998 17.5086C26.5328 17.4712 26.0996 17.4242 25.6377 17.4041C24.8624 17.3696 24.7771 17.3543 24.5337 17.2115C24.1456 16.9844 24.0392 16.739 24.0373 16.074C24.0353 14.8023 23.5063 13.6216 22.4598 12.5569C21.7162 11.7969 20.8834 11.2832 19.9356 10.9957C19.7094 10.9267 19.1996 10.9028 17.4966 10.8827C14.8258 10.851 14.2335 10.9057 13.3221 11.2679C11.647 11.9359 10.4395 13.3437 10.0015 15.1492C9.91814 15.4875 9.90281 16.0308 9.88268 19.1521C9.85873 23.0621 9.88652 23.6371 10.1299 24.4115C10.3331 25.0516 10.5372 25.4436 10.9551 25.9994C11.7553 27.0613 12.9513 27.827 14.1501 28.0435C14.7204 28.1461 21.7507 28.1729 22.4713 28.0742C23.7229 27.9036 24.7052 27.4015 25.6271 26.4604C26.2922 25.78 26.7091 25.043 26.9822 24.0655C27.0943 23.6592 27.1039 23.4618 27.125 21.0784C27.1413 19.2786 27.1269 18.4353 27.0809 18.2225V18.2225ZM14.6734 15.7702C14.9734 15.4673 15.0558 15.4549 16.9389 15.4549C18.6294 15.4549 18.685 15.4587 18.9332 15.5833C19.2926 15.7644 19.4488 16.0203 19.4488 16.4266C19.4488 16.7946 19.3021 17.0524 18.9763 17.2594C18.8 17.3696 18.6955 17.3773 17.0395 17.3869C16.017 17.3936 15.2034 17.3744 15.0816 17.3409C14.4405 17.1645 14.2019 16.2455 14.6734 15.7702V15.7702ZM22.0583 23.4723L21.4862 23.5662L18.5019 23.5998C15.8799 23.6314 15.1372 23.5825 15.0021 23.5231C14.7261 23.4043 14.4712 23.0708 14.4252 22.7756C14.3849 22.4958 14.5249 22.1086 14.7414 21.9131C15.0146 21.6668 15.1334 21.6582 18.4895 21.6543C21.9414 21.6524 21.9232 21.6515 22.2509 21.9562C22.7128 22.3875 22.6161 23.1551 22.0583 23.4723Z" fill="white"/>
</svg>
