<svg width="25" height="26" viewBox="0 0 25 26" fill="none" xmlns="http://www.w3.org/2000/svg">
<path d="M24.4293 4.2642C24.2554 4.08892 24.0463 3.94968 23.8148 3.85497C23.5833 3.76027 23.3342 3.71207 23.0828 3.71333H21.1539V2.32072C21.1583 2.0153 21.0979 1.71224 20.9763 1.43025C20.8547 1.14825 20.6746 0.893296 20.447 0.681109C20.2271 0.461683 19.9629 0.28807 19.6708 0.170971C19.3788 0.0538711 19.0649 -0.004233 18.7487 0.000239957H17.7876C17.4713 -0.00402302 17.1573 0.0543364 16.8653 0.171718C16.5732 0.2891 16.3091 0.463014 16.0893 0.682734C15.8616 0.894862 15.6814 1.14981 15.5599 1.43182C15.4383 1.71383 15.3779 2.01691 15.3824 2.32234V3.71496H9.61084V2.32072C9.61526 2.0153 9.55481 1.71224 9.43323 1.43025C9.31164 1.14825 9.1315 0.893296 8.90391 0.681109C8.68418 0.461884 8.42031 0.288388 8.12853 0.171295C7.83676 0.054202 7.52325 -0.00401029 7.20729 0.000239957H6.24621C5.92986 -0.00402302 5.61595 0.0543364 5.32386 0.171718C5.03177 0.2891 4.76769 0.463014 4.54791 0.682734C4.32032 0.894921 4.14018 1.14988 4.0186 1.43187C3.89702 1.71387 3.83657 2.01692 3.84098 2.32234V3.71496H1.91714C1.66571 3.7137 1.41666 3.76189 1.18515 3.8566C0.953651 3.95131 0.744553 4.09055 0.570613 4.26583C0.38906 4.43375 0.244835 4.63562 0.146736 4.85913C0.0486369 5.08263 -0.00128204 5.32308 2.2403e-05 5.56581V24.141C0.00651259 24.6307 0.210321 25.0987 0.568218 25.4457C0.926116 25.7928 1.40995 25.9916 1.91714 26H23.0761C23.5842 25.9933 24.0695 25.7954 24.4287 25.4486C24.788 25.1017 24.993 24.6332 24.9999 24.1426V5.57069C25.0021 5.32686 24.9527 5.08517 24.8545 4.86049C24.7564 4.63581 24.6117 4.43288 24.4293 4.2642ZM6.25126 24.141H1.91714V19.9632H6.24453L6.25126 24.141ZM6.25126 19.0337H1.91714V14.3911H6.24453L6.25126 19.0337ZM6.25126 13.4616H1.91714V9.28378H6.24453L6.25126 13.4616ZM5.91463 6.82355C5.86909 6.78166 5.8329 6.73122 5.8083 6.67533C5.78369 6.61944 5.77119 6.55928 5.77156 6.49856V2.32072C5.7733 2.19798 5.82458 2.08075 5.91448 1.99395C6.00438 1.90716 6.12582 1.85765 6.25294 1.85597H7.20729C7.33442 1.85765 7.45586 1.90716 7.54576 1.99395C7.63566 2.08075 7.68693 2.19798 7.68868 2.32072V6.50018C7.68693 6.62292 7.63566 6.74015 7.54576 6.82695C7.45586 6.91374 7.33442 6.96324 7.20729 6.96493H6.24621C6.18264 6.96542 6.11964 6.95327 6.06114 6.92923C6.00265 6.90519 5.94991 6.86977 5.90622 6.82518L5.91463 6.82355ZM12.0228 24.1394H7.20729V19.9632H12.0161L12.0228 24.1394ZM12.0228 19.0321H7.20729V14.3911H12.0161L12.0228 19.0321ZM12.0228 13.46H7.20729V9.28378H12.0161L12.0228 13.46ZM17.7943 24.1378H12.9772V19.9632H17.7859L17.7943 24.1378ZM17.7943 19.0304H12.9772V14.3911H17.7859L17.7943 19.0304ZM17.7943 13.4584H12.9772V9.28378H17.7859L17.7943 13.4584ZM17.4577 6.8203C17.4113 6.77962 17.374 6.73027 17.3479 6.67525C17.3219 6.62022 17.3077 6.56066 17.3062 6.50018V2.32072C17.3075 2.19785 17.3587 2.08038 17.4487 1.9935C17.5387 1.90661 17.6603 1.85724 17.7876 1.85597H18.7487C18.8759 1.85724 18.9976 1.90661 19.0876 1.9935C19.1776 2.08038 19.2288 2.19785 19.2301 2.32072V6.50018C19.2288 6.62305 19.1776 6.74052 19.0876 6.8274C18.9976 6.91429 18.8759 6.96366 18.7487 6.96493H17.7876C17.724 6.96552 17.661 6.95342 17.6025 6.92937C17.544 6.90532 17.4912 6.86984 17.4476 6.82518L17.4577 6.8203ZM23.0862 24.1361H18.7487V19.9632H23.0761L23.0862 24.1361ZM23.0862 19.0288H18.7487V14.3911H23.0761L23.0862 19.0288ZM23.0862 13.4567H18.7487V9.28378H23.0761L23.0862 13.4567Z" fill="white"/>
</svg>
