<svg width="26" height="26" viewBox="0 0 26 26" fill="none" xmlns="http://www.w3.org/2000/svg">
<path d="M26 13C26 16.4478 24.6304 19.7544 22.1924 22.1924C19.7544 24.6304 16.4478 26 13 26C9.55219 26 6.24558 24.6304 3.80761 22.1924C1.36964 19.7544 0 16.4478 0 13C0 9.55219 1.36964 6.24558 3.80761 3.80761C6.24558 1.36964 9.55219 0 13 0C16.4478 0 19.7544 1.36964 22.1924 3.80761C24.6304 6.24558 26 9.55219 26 13ZM13 5.6875C13 5.47201 12.9144 5.26535 12.762 5.11298C12.6097 4.9606 12.403 4.875 12.1875 4.875C11.972 4.875 11.7653 4.9606 11.613 5.11298C11.4606 5.26535 11.375 5.47201 11.375 5.6875V14.625C11.375 14.7682 11.4129 14.9089 11.4849 15.0327C11.5568 15.1566 11.6601 15.2592 11.7845 15.3302L17.472 18.5802C17.6586 18.6811 17.8773 18.705 18.0814 18.6467C18.2854 18.5885 18.4585 18.4528 18.5638 18.2686C18.669 18.0844 18.698 17.8663 18.6447 17.661C18.5913 17.4556 18.4597 17.2793 18.278 17.1698L13 14.1538V5.6875Z" fill="#462F87"/>
</svg>
