<svg width="39" height="38" viewBox="0 0 39 38" fill="none" xmlns="http://www.w3.org/2000/svg">
<ellipse cx="19.5" cy="19" rx="19.5" ry="19" fill="#3F729B"/>
<path d="M19.5 16.506C17.8514 16.506 16.506 17.8514 16.506 19.5C16.506 21.1486 17.8514 22.494 19.5 22.494C21.1486 22.494 22.4941 21.1486 22.4941 19.5C22.4941 17.8514 21.1486 16.506 19.5 16.506ZM28.4799 19.5C28.4799 18.2602 28.4911 17.0315 28.4215 15.7939C28.3519 14.3564 28.0239 13.0807 26.9728 12.0295C25.9194 10.9761 24.6458 10.6504 23.2083 10.5808C21.9685 10.5111 20.7399 10.5224 19.5023 10.5224C18.2624 10.5224 17.0338 10.5111 15.7962 10.5808C14.3587 10.6504 13.0829 10.9783 12.0318 12.0295C10.9783 13.0829 10.6527 14.3564 10.583 15.7939C10.5134 17.0338 10.5246 18.2624 10.5246 19.5C10.5246 20.7376 10.5134 21.9685 10.583 23.2061C10.6527 24.6436 10.9806 25.9193 12.0318 26.9705C13.0852 28.0239 14.3587 28.3496 15.7962 28.4192C17.036 28.4889 18.2647 28.4776 19.5023 28.4776C20.7421 28.4776 21.9707 28.4889 23.2083 28.4192C24.6458 28.3496 25.9216 28.0217 26.9728 26.9705C28.0262 25.9171 28.3519 24.6436 28.4215 23.2061C28.4934 21.9685 28.4799 20.7398 28.4799 19.5ZM19.5 24.1067C16.9507 24.1067 14.8933 22.0493 14.8933 19.5C14.8933 16.9507 16.9507 14.8933 19.5 14.8933C22.0493 14.8933 24.1068 16.9507 24.1068 19.5C24.1068 22.0493 22.0493 24.1067 19.5 24.1067ZM24.2954 15.7805C23.7002 15.7805 23.2195 15.2998 23.2195 14.7046C23.2195 14.1094 23.7002 13.6287 24.2954 13.6287C24.8906 13.6287 25.3713 14.1094 25.3713 14.7046C25.3715 14.8459 25.3438 14.9859 25.2898 15.1165C25.2358 15.2471 25.1565 15.3658 25.0566 15.4657C24.9566 15.5657 24.838 15.6449 24.7074 15.6989C24.5767 15.7529 24.4368 15.7806 24.2954 15.7805Z" fill="white"/>
</svg>
