<svg width="16" height="16" viewBox="0 0 16 16" fill="none" xmlns="http://www.w3.org/2000/svg">
<circle cx="8" cy="8" r="8" fill="#3B5998"/>
<path d="M5.5 10.875H5.875V6H5.5C5.30109 6 5.11032 6.07902 4.96967 6.21967C4.82902 6.36032 4.75 6.55109 4.75 6.75V10.125C4.75 10.3239 4.82902 10.5147 4.96967 10.6553C5.11032 10.796 5.30109 10.875 5.5 10.875ZM11.5 6H8.875L9.29575 4.737C9.33329 4.62428 9.34352 4.50425 9.32559 4.38681C9.30766 4.26936 9.26208 4.15786 9.19262 4.06147C9.12315 3.96509 9.03178 3.88659 8.92603 3.83244C8.82028 3.77829 8.70318 3.75003 8.58438 3.75H8.5L6.625 5.78925V10.875H10.75L12.217 7.6515L12.25 7.5V6.75C12.25 6.55109 12.171 6.36032 12.0303 6.21967C11.8897 6.07902 11.6989 6 11.5 6Z" fill="white"/>
</svg>
