<svg width="39" height="38" viewBox="0 0 39 38" fill="none" xmlns="http://www.w3.org/2000/svg">
<ellipse cx="19.5" cy="19" rx="19.5" ry="19" fill="#00ACEE"/>
<path d="M28.355 14.0076C27.6919 14.3014 26.9885 14.4941 26.2682 14.5794C27.0268 14.1255 27.5946 13.4112 27.8656 12.5697C27.1525 12.993 26.3721 13.2911 25.5584 13.451C25.2185 13.0884 24.8076 12.7995 24.3514 12.6021C23.8952 12.4048 23.4033 12.3032 22.9063 12.3038C20.8998 12.3038 19.2728 13.9303 19.2728 15.9373C19.2728 16.2218 19.305 16.4994 19.3671 16.7655C16.3472 16.614 13.67 15.1673 11.8778 12.9687C11.5547 13.5232 11.3849 14.1538 11.3858 14.7956C11.3853 15.3938 11.5326 15.9829 11.8146 16.5105C12.0966 17.0381 12.5046 17.4879 13.0023 17.8199C12.4254 17.8015 11.8612 17.6457 11.3566 17.3654C11.3562 17.3806 11.3562 17.3955 11.3562 17.4112C11.3562 19.1711 12.6085 20.6397 14.2705 20.9739C13.7353 21.1187 13.1742 21.14 12.6297 21.036C13.092 22.4792 14.4338 23.5301 16.0238 23.5595C14.7367 24.5696 13.1473 25.1174 11.5112 25.115C11.2179 25.115 10.9288 25.098 10.6443 25.0642C12.3057 26.1316 14.2392 26.6982 16.214 26.6963C22.8973 26.6963 26.552 21.1599 26.552 16.3589C26.552 16.2016 26.5483 16.0445 26.5414 15.8883C27.2532 15.3745 27.8674 14.7376 28.355 14.0076Z" fill="white"/>
</svg>
