<svg width="39" height="38" viewBox="0 0 39 38" fill="none" xmlns="http://www.w3.org/2000/svg">
<ellipse cx="19.5" cy="19" rx="19.5" ry="19" fill="#B2071D"/>
<g clip-path="url(#clip0_260_883)">
<path d="M29.5625 14.6936C29.4436 14.2695 29.212 13.8854 28.8922 13.5824C28.5635 13.27 28.1606 13.0466 27.7215 12.9331C26.0782 12.5 19.4947 12.5 19.4947 12.5C16.7502 12.4688 14.0062 12.6061 11.2785 12.9113C10.8394 13.0331 10.4372 13.2615 10.1077 13.5763C9.78399 13.8878 9.54949 14.2719 9.42699 14.6928C9.13272 16.278 8.98975 17.8877 8.99999 19.5C8.98949 21.1109 9.13212 22.72 9.42699 24.3073C9.54687 24.7264 9.78049 25.1088 10.1051 25.4176C10.4297 25.7265 10.834 25.9496 11.2785 26.0678C12.9436 26.5 19.4947 26.5 19.4947 26.5C22.2428 26.5313 24.9902 26.3939 27.7215 26.0888C28.1606 25.9753 28.5635 25.7519 28.8922 25.4395C29.216 25.1306 29.4461 24.7465 29.5616 24.3283C29.8636 22.7436 30.0104 21.1333 30 19.5201C30.0227 17.9002 29.8761 16.2822 29.5625 14.6928V14.6936ZM17.4017 22.496V16.5049L22.8792 19.5009L17.4017 22.496Z" fill="white"/>
</g>
<defs>
<clipPath id="clip0_260_883">
<rect width="21" height="21" fill="white" transform="translate(9 9)"/>
</clipPath>
</defs>
</svg>
