<svg width="39" height="38" viewBox="0 0 39 38" fill="none" xmlns="http://www.w3.org/2000/svg">
<ellipse cx="19.5" cy="19" rx="19.5" ry="19" fill="#BFBFBF"/>
<g clip-path="url(#clip0_254_237)">
<path d="M29.5625 14.6936C29.4436 14.2695 29.212 13.8854 28.8923 13.5824C28.5635 13.27 28.1606 13.0466 27.7215 12.9331C26.0783 12.5 19.4948 12.5 19.4948 12.5C16.7502 12.4688 14.0063 12.6061 11.2786 12.9113C10.8395 13.0331 10.4373 13.2615 10.1078 13.5763C9.78405 13.8878 9.54955 14.2719 9.42705 14.6928C9.13278 16.278 8.98981 17.8877 9.00005 19.5C8.98955 21.1109 9.13218 22.72 9.42705 24.3073C9.54693 24.7264 9.78055 25.1088 10.1052 25.4176C10.4298 25.7265 10.8341 25.9496 11.2786 26.0678C12.9437 26.5 19.4948 26.5 19.4948 26.5C22.2429 26.5313 24.9903 26.3939 27.7215 26.0888C28.1606 25.9753 28.5635 25.7519 28.8923 25.4395C29.216 25.1306 29.4462 24.7465 29.5617 24.3283C29.8636 22.7436 30.0104 21.1333 30 19.5201C30.0228 17.9002 29.8761 16.2822 29.5625 14.6928V14.6936ZM17.4018 22.496V16.5049L22.8793 19.5009L17.4018 22.496Z" fill="white"/>
</g>
<defs>
<clipPath id="clip0_254_237">
<rect width="21" height="21" fill="white" transform="translate(9 9)"/>
</clipPath>
</defs>
</svg>
