<?xml version="1.0" encoding="UTF-8" standalone="no"?>
<svg
   width="40"
   height="40"
   viewBox="0 0 40 40"
   fill="none"
   version="1.1"
   id="svg4"
   sodipodi:docname="favicon.svg"
   xml:space="preserve"
   inkscape:version="1.2.2 (b0a8486541, 2022-12-01)"
   xmlns:inkscape="http://www.inkscape.org/namespaces/inkscape"
   xmlns:sodipodi="http://sodipodi.sourceforge.net/DTD/sodipodi-0.dtd"
   xmlns="http://www.w3.org/2000/svg"
   xmlns:svg="http://www.w3.org/2000/svg"><defs
     id="defs8" /><sodipodi:namedview
     id="namedview6"
     pagecolor="#ffffff"
     bordercolor="#000000"
     borderopacity="0.25"
     inkscape:showpageshadow="2"
     inkscape:pageopacity="0.0"
     inkscape:pagecheckerboard="0"
     inkscape:deskcolor="#d1d1d1"
     showgrid="false"
     inkscape:zoom="21.138888"
     inkscape:cx="10.927727"
     inkscape:cy="17.030224"
     inkscape:window-width="1920"
     inkscape:window-height="1043"
     inkscape:window-x="0"
     inkscape:window-y="0"
     inkscape:window-maximized="1"
     inkscape:current-layer="g864" /><g
     id="g805"
     transform="translate(1.2929492,1.7089825)"><g
       id="g864"
       transform="matrix(1.1139584,0,0,1.1139584,-2.1318259,8.4981896)"><g
         id="g856"
         transform="translate(0,0.53257848)"><path
           d="M 1.9936019,15.58125 4.5959283,6.754109 c 2.1901562,-7.4320115 5.7414447,-7.4320115 7.9328797,0 1.436543,4.874819 3.766006,4.874819 5.202923,0 2.291514,-7.7749023 6.006584,-7.7749023 8.298008,0 l 2.373049,8.059535"
           stroke="#eb5676"
           stroke-width="1.7369"
           stroke-linecap="round"
           stroke-linejoin="round"
           id="path2"
           style="stroke-width:2.48058;stroke-dasharray:none" /><g
           style="fill:none;stroke:#006c94;stroke-opacity:1"
           id="g800"
           transform="matrix(0.94148622,0,0,0.94148622,7.7704618,-0.00563367)"><path
             d="m 1.31787,16.5691 2.7654,-9.37561 c 2.3267,-7.893794 6.09863,-7.893794 8.42573,0 1.5263,5.17771 4.0005,5.17771 5.5263,0 2.4338,-8.25799 6.3797,-8.25799 8.8136,0 l 2.5195,8.56031"
             stroke="#46267d"
             stroke-width="1.7369"
             stroke-linecap="round"
             stroke-linejoin="round"
             id="path791"
             style="stroke:#006c94;stroke-width:2.63475;stroke-dasharray:none;stroke-opacity:1" /></g></g></g></g></svg>
